<svg xmlns="http://www.w3.org/2000/svg" width="1200" height="600" viewBox="0 0 1200 600" fill="none" role="img" aria-labelledby="title desc">
<title id="title">Kidus Mesfin — building the whole system</title>
<desc id="desc">Animated banner: Kidus Mesfin, software engineer in Addis Ababa. Builds interfaces, services, data and delivery as one system. 3+ years shipping, Codeforces Expert rated 1726, 1,001 LeetCode problems solved.</desc>
<style>
.mono{font-family:ui-monospace,SFMono-Regular,Menlo,Consolas,'Liberation Mono',monospace}
.sans{font-family:Arial,Helvetica,'Liberation Sans',sans-serif}
.serif{font-family:Georgia,'Times New Roman',serif;font-style:italic}
.fb{transform-box:fill-box;transform-origin:center}
.fl{transform-box:fill-box;transform-origin:0 50%}
.fbt{transform-box:fill-box;transform-origin:50% 100%}
@keyframes rise{from{opacity:0;transform:translateY(16px)}}
@keyframes fade{from{opacity:0}}
@keyframes draw{from{stroke-dashoffset:1}}
@keyframes grow{from{transform:scaleX(0)}}
@keyframes growy{from{transform:scaleY(0)}}
@keyframes pop{from{opacity:0;transform:scale(.4)}}
@keyframes roll{from{transform:translateY(0)}}
@keyframes spin{to{transform:rotate(360deg)}}
@keyframes spinr{to{transform:rotate(-360deg)}}
@keyframes blink{0%,100%{opacity:1}50%{opacity:.2}}
@keyframes ping{0%{transform:scale(.5);opacity:.9}80%,100%{transform:scale(2.8);opacity:0}}
@keyframes breathe{0%,100%{opacity:.75;transform:scale(1)}50%{opacity:1;transform:scale(1.08)}}
@keyframes dash{to{stroke-dashoffset:-28}}
@keyframes travel{from{stroke-dashoffset:1000}to{stroke-dashoffset:-200}}
@media (prefers-reduced-motion:reduce){*{animation:none!important}.motion{display:none}}
@keyframes lineup{from{transform:translateY(100px)}}
@keyframes words{0%,20%{transform:translateY(-0px)}25%,45%{transform:translateY(-34px)}50%,70%{transform:translateY(-68px)}75%,95%{transform:translateY(-102px)}100%{transform:translateY(-136px)}}
.words{animation:words 12s cubic-bezier(.7,0,.2,1) 2s infinite}
.sweep{transform-origin:1000px 268px;animation:spin 7s linear infinite}
.ring{transform-origin:1000px 268px;animation:spin 48s linear infinite}
.ringr{transform-origin:1000px 268px;animation:spinr 80s linear infinite}
.glow{transform-origin:1000px 268px;animation:breathe 6s ease-in-out infinite}
.trail{stroke-dasharray:140 1000;animation:travel 7s cubic-bezier(.5,0,.5,1) 1s infinite}</style>
<defs>
<pattern id="grid" width="40" height="40" patternUnits="userSpaceOnUse"><path d="M40 0H0V40" stroke="#0A0A0A" stroke-opacity="0.055"/></pattern>
<clipPath id="frame"><rect x="1" y="1" width="1198" height="598" rx="26"/></clipPath>

<linearGradient id="edge" x1="0" y1="0" x2="1200" y2="600" gradientUnits="userSpaceOnUse"><stop stop-color="#5F7D00" stop-opacity=".6"/><stop offset=".45" stop-color="#5F7D00" stop-opacity=".07"/><stop offset="1" stop-color="#0A0A0A" stop-opacity=".12"/></linearGradient>
<radialGradient id="glow" cx="0" cy="0" r="1" gradientUnits="userSpaceOnUse" gradientTransform="translate(1000 268) scale(280)"><stop stop-color="#A7D600" stop-opacity="0.24"/><stop offset="1" stop-color="#A7D600" stop-opacity="0"/></radialGradient>
<linearGradient id="sweepGrad" x1="0" y1="0" x2="1" y2="0"><stop stop-color="#5F7D00" stop-opacity="0"/><stop offset="1" stop-color="#5F7D00" stop-opacity=".22"/></linearGradient>
<clipPath id="l1"><rect x="40" y="128" width="760" height="100"/></clipPath>
<clipPath id="l2"><rect x="40" y="226" width="760" height="86"/></clipPath>
<clipPath id="win"><rect x="50" y="378" width="760" height="36"/></clipPath>
</defs>
<g clip-path="url(#frame)">
<rect width="1200" height="600" fill="#F4F1EA"/>
<rect width="1200" height="600" fill="url(#grid)"/>

<rect width="1200" height="600" fill="url(#glow)" class="glow"/>
<path d="M-20 520C220 462 349 531 566 484C804 432 929 298 1228 333" stroke="url(#edge)" stroke-width="1.5"/>
<path d="M-20 520C220 462 349 531 566 484C804 432 929 298 1228 333" stroke="#5F7D00" stroke-width="2.5" stroke-linecap="round" pathLength="1000" class="trail"/>

<g style="animation:fade 1.6s cubic-bezier(.16,1,.3,1) 0.2s backwards">
<circle cx="1000" cy="268" r="170" stroke="#0A0A0A" stroke-opacity="0.13999999999999999"/>
<circle cx="1000" cy="268" r="108" stroke="#5F7D00" stroke-opacity=".45" stroke-dasharray="3 9" class="ring"/>
<circle cx="1000" cy="268" r="170" stroke="#5F7D00" stroke-opacity=".5" stroke-dasharray="1 15" stroke-width="3" stroke-linecap="round" class="ringr"/>
<path d="M1000 268L1170 268A170 170 0 0 0 1130.2 158.7Z" fill="url(#sweepGrad)" class="sweep"/>
<path d="M1000 268L1000 118M1000 268L1129.9 193M1000 268L1129.9 343M1000 268L1000 418M1000 268L870.1 343M1000 268L870.1 193" stroke="#0A0A0A" stroke-opacity="0.12"/>
<g class="motion"><circle r="3.2" fill="#5F7D00"><animateMotion dur="2.4s" begin="0s" repeatCount="indefinite" path="M1000 268L1000 118" keyTimes="0;1" keySplines=".5 0 .5 1" calcMode="spline"/></circle><circle r="3.2" fill="#5F7D00"><animateMotion dur="2.4s" begin="0.4s" repeatCount="indefinite" path="M1129.9 193L1000 268" keyTimes="0;1" keySplines=".5 0 .5 1" calcMode="spline"/></circle><circle r="3.2" fill="#5F7D00"><animateMotion dur="2.4s" begin="0.8s" repeatCount="indefinite" path="M1000 268L1129.9 343" keyTimes="0;1" keySplines=".5 0 .5 1" calcMode="spline"/></circle><circle r="3.2" fill="#5F7D00"><animateMotion dur="2.4s" begin="1.2s" repeatCount="indefinite" path="M1000 418L1000 268" keyTimes="0;1" keySplines=".5 0 .5 1" calcMode="spline"/></circle><circle r="3.2" fill="#5F7D00"><animateMotion dur="2.4s" begin="1.6s" repeatCount="indefinite" path="M1000 268L870.1 343" keyTimes="0;1" keySplines=".5 0 .5 1" calcMode="spline"/></circle><circle r="3.2" fill="#5F7D00"><animateMotion dur="2.4s" begin="2s" repeatCount="indefinite" path="M870.1 193L1000 268" keyTimes="0;1" keySplines=".5 0 .5 1" calcMode="spline"/></circle></g>
<circle r="5" fill="#0A0A0A" class="motion"><animateMotion dur="14s" repeatCount="indefinite" path="M830 268a170 170 0 1 1 340 0a170 170 0 1 1 -340 0"/></circle>


<circle cx="1000" cy="118" r="4.5" fill="#5F7D00" class="fb" style="animation:ping 2.4s cubic-bezier(.16,1,.3,1) 2.2s infinite"/>
<circle cx="1000" cy="118" r="4.5" fill="#5F7D00"/>
<text x="1000" y="102" class="mono" font-size="10" letter-spacing="1.6" fill="#0A0A0A" fill-opacity="0.72" text-anchor="middle" style="">INTERFACE</text>

<circle cx="1129.9" cy="193" r="4.5" fill="#5F7D00" class="fb" style="animation:ping 2.4s cubic-bezier(.16,1,.3,1) 0.4s infinite"/>
<circle cx="1129.9" cy="193" r="4.5" fill="#5F7D00"/>
<text x="1143.9" y="197" class="mono" font-size="10" letter-spacing="1.6" fill="#0A0A0A" fill-opacity="0.72" text-anchor="start" style="">API</text>

<circle cx="1129.9" cy="343" r="4.5" fill="#5F7D00" class="fb" style="animation:ping 2.4s cubic-bezier(.16,1,.3,1) 3s infinite"/>
<circle cx="1129.9" cy="343" r="4.5" fill="#5F7D00"/>
<text x="1143.9" y="347" class="mono" font-size="10" letter-spacing="1.6" fill="#0A0A0A" fill-opacity="0.72" text-anchor="start" style="">DATA</text>

<circle cx="1000" cy="418" r="4.5" fill="#5F7D00" class="fb" style="animation:ping 2.4s cubic-bezier(.16,1,.3,1) 1.2s infinite"/>
<circle cx="1000" cy="418" r="4.5" fill="#5F7D00"/>
<text x="1000" y="444" class="mono" font-size="10" letter-spacing="1.6" fill="#0A0A0A" fill-opacity="0.72" text-anchor="middle" style="">AUTH</text>

<circle cx="870.1" cy="343" r="4.5" fill="#5F7D00" class="fb" style="animation:ping 2.4s cubic-bezier(.16,1,.3,1) 3.8s infinite"/>
<circle cx="870.1" cy="343" r="4.5" fill="#5F7D00"/>
<text x="856.1" y="347" class="mono" font-size="10" letter-spacing="1.6" fill="#0A0A0A" fill-opacity="0.72" text-anchor="end" style="">AI</text>

<circle cx="870.1" cy="193" r="4.5" fill="#5F7D00" class="fb" style="animation:ping 2.4s cubic-bezier(.16,1,.3,1) 2s infinite"/>
<circle cx="870.1" cy="193" r="4.5" fill="#5F7D00"/>
<text x="856.1" y="197" class="mono" font-size="10" letter-spacing="1.6" fill="#0A0A0A" fill-opacity="0.72" text-anchor="end" style="">SHIP</text>
<circle cx="1000" cy="268" r="64" fill="#5F7D00" fill-opacity=".06" stroke="#5F7D00" stroke-opacity=".55"/>
<rect x="940" y="237" width="120" height="62" rx="10" fill="#FAF8F3" stroke="#0A0A0A" stroke-opacity="0.18"/>
<text x="1000" y="262" class="mono" font-size="10" letter-spacing="2" fill="#5F7D00" fill-opacity="1" text-anchor="middle" style="">SYSTEM</text>
<text x="1000" y="282" class="sans" font-size="12" font-weight="700" fill="#0A0A0A" text-anchor="middle">END TO END</text>
</g>

<g class="mono" font-size="11" letter-spacing="1.8" style="animation:fade 1s cubic-bezier(.16,1,.3,1) 0s backwards">
<text x="60" y="54" fill="#0A0A0A">KIDUS / MESFIN</text>
<text x="1140" y="54" fill="#57544F" text-anchor="end">ADDIS ABABA · UTC+3</text>
</g>

<circle cx="64" cy="87" r="4" fill="#5F7D00" class="fb" style="animation:ping 2.4s cubic-bezier(.16,1,.3,1) 0.4s infinite"/>
<circle cx="64" cy="87" r="4" fill="#5F7D00"/>
<text x="80" y="91" class="mono" font-size="11" letter-spacing="1.8" fill="#5F7D00" fill-opacity="1" text-anchor="start" style="animation:fade 1s cubic-bezier(.16,1,.3,1) 0.3s backwards">AVAILABLE FOR AMBITIOUS PRODUCT WORK</text>

<g clip-path="url(#l1)"><text x="58" y="215" class="sans" font-size="78" font-weight="800" letter-spacing="-3.6" fill="#0A0A0A" style="animation:lineup 1.1s cubic-bezier(.16,1,.3,1) 0.15s backwards">BUILDING THE</text></g>
<g clip-path="url(#l2)"><text x="58" y="296" class="serif" font-size="84" letter-spacing="-3" fill="#0A0A0A" style="animation:lineup 1.1s cubic-bezier(.16,1,.3,1) 0.3s backwards">whole system.</text></g>
<rect x="60" y="322" width="480" height="2" fill="#5F7D00" class="fl" style="animation:grow 1.2s cubic-bezier(.16,1,.3,1) 0.7s backwards"/>

<text x="60" y="360" class="mono" font-size="11" letter-spacing="1.8" fill="#57544F" fill-opacity="1" text-anchor="start" style="animation:fade 0.8s cubic-bezier(.16,1,.3,1) 0.9s backwards">&gt; NOW SHIPPING</text>
<g clip-path="url(#win)" style="animation:fade 0.8s cubic-bezier(.16,1,.3,1) 1s backwards"><g class="words sans" font-size="26" font-weight="700" fill="#0A0A0A"><text x="60" y="404">AI verification tooling.</text><text x="60" y="438">member-commerce platforms.</text><text x="60" y="472">real-time operations software.</text><text x="60" y="506">media on web, mobile &amp; TV.</text><text x="60" y="540">AI verification tooling.</text></g></g>
<text x="60" y="446" class="sans" font-size="17" fill="#57544F" style="animation:rise 0.9s cubic-bezier(.16,1,.3,1) 1.1s backwards">Interfaces, services, data, and delivery — designed as one system.</text>


<g transform="translate(60 488)"><g style="animation:rise 0.9s cubic-bezier(.16,1,.3,1) 1s backwards">
<rect width="242" height="78" rx="14" fill="#FAF8F3" stroke="#0A0A0A" stroke-opacity="0.12"/>
<text x="18" y="27" class="mono" font-size="10" letter-spacing="1.5" fill="#5F7D00" fill-opacity="1" text-anchor="start" style="">EXPERIENCE</text>
<text x="18" y="57" class="sans" font-size="20" font-weight="700" fill="#0A0A0A">3+ years shipping</text>
</g></g>
<g transform="translate(318 488)"><g style="animation:rise 0.9s cubic-bezier(.16,1,.3,1) 1.1s backwards">
<rect width="242" height="78" rx="14" fill="#FAF8F3" stroke="#0A0A0A" stroke-opacity="0.12"/>
<text x="18" y="27" class="mono" font-size="10" letter-spacing="1.5" fill="#5F7D00" fill-opacity="1" text-anchor="start" style="">CODEFORCES · EXPERT</text>
<g transform="translate(0 57)"><clipPath id="od0"><rect x="14" y="-20.2" width="60.8" height="26"/></clipPath>
<g clip-path="url(#od0)" class="sans" fill="#0A0A0A" font-size="22" font-weight="800"><g style="transform:translateY(-290.4px);animation:roll 1.4s cubic-bezier(.12,.9,.25,1) 1.3s backwards"><text x="24.6" y="0" text-anchor="middle">0</text><text x="24.6" y="26.4" text-anchor="middle">1</text><text x="24.6" y="52.8" text-anchor="middle">2</text><text x="24.6" y="79.2" text-anchor="middle">3</text><text x="24.6" y="105.6" text-anchor="middle">4</text><text x="24.6" y="132" text-anchor="middle">5</text><text x="24.6" y="158.4" text-anchor="middle">6</text><text x="24.6" y="184.8" text-anchor="middle">7</text><text x="24.6" y="211.2" text-anchor="middle">8</text><text x="24.6" y="237.6" text-anchor="middle">9</text><text x="24.6" y="264" text-anchor="middle">0</text><text x="24.6" y="290.4" text-anchor="middle">1</text><text x="24.6" y="316.8" text-anchor="middle">2</text><text x="24.6" y="343.2" text-anchor="middle">3</text><text x="24.6" y="369.6" text-anchor="middle">4</text><text x="24.6" y="396" text-anchor="middle">5</text><text x="24.6" y="422.4" text-anchor="middle">6</text><text x="24.6" y="448.8" text-anchor="middle">7</text><text x="24.6" y="475.2" text-anchor="middle">8</text><text x="24.6" y="501.6" text-anchor="middle">9</text></g><g style="transform:translateY(-448.8px);animation:roll 1.6s cubic-bezier(.12,.9,.25,1) 1.3s backwards"><text x="37.8" y="0" text-anchor="middle">0</text><text x="37.8" y="26.4" text-anchor="middle">1</text><text x="37.8" y="52.8" text-anchor="middle">2</text><text x="37.8" y="79.2" text-anchor="middle">3</text><text x="37.8" y="105.6" text-anchor="middle">4</text><text x="37.8" y="132" text-anchor="middle">5</text><text x="37.8" y="158.4" text-anchor="middle">6</text><text x="37.8" y="184.8" text-anchor="middle">7</text><text x="37.8" y="211.2" text-anchor="middle">8</text><text x="37.8" y="237.6" text-anchor="middle">9</text><text x="37.8" y="264" text-anchor="middle">0</text><text x="37.8" y="290.4" text-anchor="middle">1</text><text x="37.8" y="316.8" text-anchor="middle">2</text><text x="37.8" y="343.2" text-anchor="middle">3</text><text x="37.8" y="369.6" text-anchor="middle">4</text><text x="37.8" y="396" text-anchor="middle">5</text><text x="37.8" y="422.4" text-anchor="middle">6</text><text x="37.8" y="448.8" text-anchor="middle">7</text><text x="37.8" y="475.2" text-anchor="middle">8</text><text x="37.8" y="501.6" text-anchor="middle">9</text></g><g style="transform:translateY(-316.8px);animation:roll 1.8s cubic-bezier(.12,.9,.25,1) 1.3s backwards"><text x="51" y="0" text-anchor="middle">0</text><text x="51" y="26.4" text-anchor="middle">1</text><text x="51" y="52.8" text-anchor="middle">2</text><text x="51" y="79.2" text-anchor="middle">3</text><text x="51" y="105.6" text-anchor="middle">4</text><text x="51" y="132" text-anchor="middle">5</text><text x="51" y="158.4" text-anchor="middle">6</text><text x="51" y="184.8" text-anchor="middle">7</text><text x="51" y="211.2" text-anchor="middle">8</text><text x="51" y="237.6" text-anchor="middle">9</text><text x="51" y="264" text-anchor="middle">0</text><text x="51" y="290.4" text-anchor="middle">1</text><text x="51" y="316.8" text-anchor="middle">2</text><text x="51" y="343.2" text-anchor="middle">3</text><text x="51" y="369.6" text-anchor="middle">4</text><text x="51" y="396" text-anchor="middle">5</text><text x="51" y="422.4" text-anchor="middle">6</text><text x="51" y="448.8" text-anchor="middle">7</text><text x="51" y="475.2" text-anchor="middle">8</text><text x="51" y="501.6" text-anchor="middle">9</text></g><g style="transform:translateY(-422.4px);animation:roll 1.9s cubic-bezier(.12,.9,.25,1) 1.3s backwards"><text x="64.2" y="0" text-anchor="middle">0</text><text x="64.2" y="26.4" text-anchor="middle">1</text><text x="64.2" y="52.8" text-anchor="middle">2</text><text x="64.2" y="79.2" text-anchor="middle">3</text><text x="64.2" y="105.6" text-anchor="middle">4</text><text x="64.2" y="132" text-anchor="middle">5</text><text x="64.2" y="158.4" text-anchor="middle">6</text><text x="64.2" y="184.8" text-anchor="middle">7</text><text x="64.2" y="211.2" text-anchor="middle">8</text><text x="64.2" y="237.6" text-anchor="middle">9</text><text x="64.2" y="264" text-anchor="middle">0</text><text x="64.2" y="290.4" text-anchor="middle">1</text><text x="64.2" y="316.8" text-anchor="middle">2</text><text x="64.2" y="343.2" text-anchor="middle">3</text><text x="64.2" y="369.6" text-anchor="middle">4</text><text x="64.2" y="396" text-anchor="middle">5</text><text x="64.2" y="422.4" text-anchor="middle">6</text><text x="64.2" y="448.8" text-anchor="middle">7</text><text x="64.2" y="475.2" text-anchor="middle">8</text><text x="64.2" y="501.6" text-anchor="middle">9</text></g></g></g><text x="78.8" y="57" class="sans" font-size="20" font-weight="700" fill="#0A0A0A">rating</text>
</g></g>
<g transform="translate(576 488)"><g style="animation:rise 0.9s cubic-bezier(.16,1,.3,1) 1.2s backwards">
<rect width="242" height="78" rx="14" fill="#FAF8F3" stroke="#0A0A0A" stroke-opacity="0.12"/>
<text x="18" y="27" class="mono" font-size="10" letter-spacing="1.5" fill="#5F7D00" fill-opacity="1" text-anchor="start" style="">LEETCODE</text>
<g transform="translate(0 57)"><clipPath id="od1"><rect x="14" y="-20.2" width="66.7" height="26"/></clipPath>
<g clip-path="url(#od1)" class="sans" fill="#0A0A0A" font-size="22" font-weight="800"><g style="transform:translateY(-290.4px);animation:roll 1.4s cubic-bezier(.12,.9,.25,1) 1.45s backwards"><text x="24.6" y="0" text-anchor="middle">0</text><text x="24.6" y="26.4" text-anchor="middle">1</text><text x="24.6" y="52.8" text-anchor="middle">2</text><text x="24.6" y="79.2" text-anchor="middle">3</text><text x="24.6" y="105.6" text-anchor="middle">4</text><text x="24.6" y="132" text-anchor="middle">5</text><text x="24.6" y="158.4" text-anchor="middle">6</text><text x="24.6" y="184.8" text-anchor="middle">7</text><text x="24.6" y="211.2" text-anchor="middle">8</text><text x="24.6" y="237.6" text-anchor="middle">9</text><text x="24.6" y="264" text-anchor="middle">0</text><text x="24.6" y="290.4" text-anchor="middle">1</text><text x="24.6" y="316.8" text-anchor="middle">2</text><text x="24.6" y="343.2" text-anchor="middle">3</text><text x="24.6" y="369.6" text-anchor="middle">4</text><text x="24.6" y="396" text-anchor="middle">5</text><text x="24.6" y="422.4" text-anchor="middle">6</text><text x="24.6" y="448.8" text-anchor="middle">7</text><text x="24.6" y="475.2" text-anchor="middle">8</text><text x="24.6" y="501.6" text-anchor="middle">9</text></g><text x="34.2" y="0" text-anchor="middle">,</text><g style="transform:translateY(-264px);animation:roll 1.6s cubic-bezier(.12,.9,.25,1) 1.45s backwards"><text x="43.7" y="0" text-anchor="middle">0</text><text x="43.7" y="26.4" text-anchor="middle">1</text><text x="43.7" y="52.8" text-anchor="middle">2</text><text x="43.7" y="79.2" text-anchor="middle">3</text><text x="43.7" y="105.6" text-anchor="middle">4</text><text x="43.7" y="132" text-anchor="middle">5</text><text x="43.7" y="158.4" text-anchor="middle">6</text><text x="43.7" y="184.8" text-anchor="middle">7</text><text x="43.7" y="211.2" text-anchor="middle">8</text><text x="43.7" y="237.6" text-anchor="middle">9</text><text x="43.7" y="264" text-anchor="middle">0</text><text x="43.7" y="290.4" text-anchor="middle">1</text><text x="43.7" y="316.8" text-anchor="middle">2</text><text x="43.7" y="343.2" text-anchor="middle">3</text><text x="43.7" y="369.6" text-anchor="middle">4</text><text x="43.7" y="396" text-anchor="middle">5</text><text x="43.7" y="422.4" text-anchor="middle">6</text><text x="43.7" y="448.8" text-anchor="middle">7</text><text x="43.7" y="475.2" text-anchor="middle">8</text><text x="43.7" y="501.6" text-anchor="middle">9</text></g><g style="transform:translateY(-264px);animation:roll 1.8s cubic-bezier(.12,.9,.25,1) 1.45s backwards"><text x="56.9" y="0" text-anchor="middle">0</text><text x="56.9" y="26.4" text-anchor="middle">1</text><text x="56.9" y="52.8" text-anchor="middle">2</text><text x="56.9" y="79.2" text-anchor="middle">3</text><text x="56.9" y="105.6" text-anchor="middle">4</text><text x="56.9" y="132" text-anchor="middle">5</text><text x="56.9" y="158.4" text-anchor="middle">6</text><text x="56.9" y="184.8" text-anchor="middle">7</text><text x="56.9" y="211.2" text-anchor="middle">8</text><text x="56.9" y="237.6" text-anchor="middle">9</text><text x="56.9" y="264" text-anchor="middle">0</text><text x="56.9" y="290.4" text-anchor="middle">1</text><text x="56.9" y="316.8" text-anchor="middle">2</text><text x="56.9" y="343.2" text-anchor="middle">3</text><text x="56.9" y="369.6" text-anchor="middle">4</text><text x="56.9" y="396" text-anchor="middle">5</text><text x="56.9" y="422.4" text-anchor="middle">6</text><text x="56.9" y="448.8" text-anchor="middle">7</text><text x="56.9" y="475.2" text-anchor="middle">8</text><text x="56.9" y="501.6" text-anchor="middle">9</text></g><g style="transform:translateY(-290.4px);animation:roll 1.9s cubic-bezier(.12,.9,.25,1) 1.45s backwards"><text x="70.1" y="0" text-anchor="middle">0</text><text x="70.1" y="26.4" text-anchor="middle">1</text><text x="70.1" y="52.8" text-anchor="middle">2</text><text x="70.1" y="79.2" text-anchor="middle">3</text><text x="70.1" y="105.6" text-anchor="middle">4</text><text x="70.1" y="132" text-anchor="middle">5</text><text x="70.1" y="158.4" text-anchor="middle">6</text><text x="70.1" y="184.8" text-anchor="middle">7</text><text x="70.1" y="211.2" text-anchor="middle">8</text><text x="70.1" y="237.6" text-anchor="middle">9</text><text x="70.1" y="264" text-anchor="middle">0</text><text x="70.1" y="290.4" text-anchor="middle">1</text><text x="70.1" y="316.8" text-anchor="middle">2</text><text x="70.1" y="343.2" text-anchor="middle">3</text><text x="70.1" y="369.6" text-anchor="middle">4</text><text x="70.1" y="396" text-anchor="middle">5</text><text x="70.1" y="422.4" text-anchor="middle">6</text><text x="70.1" y="448.8" text-anchor="middle">7</text><text x="70.1" y="475.2" text-anchor="middle">8</text><text x="70.1" y="501.6" text-anchor="middle">9</text></g></g></g><text x="84.7" y="57" class="sans" font-size="20" font-weight="700" fill="#0A0A0A">solved</text>
</g></g>
<g transform="translate(834 488)"><g style="animation:rise 0.9s cubic-bezier(.16,1,.3,1) 1.3s backwards">
<rect width="306" height="78" rx="14" fill="#D7FF3F" stroke="#0A0A0A" stroke-opacity="0"/>
<text x="18" y="27" class="mono" font-size="10" letter-spacing="1.5" fill="#080808" fill-opacity="0.68" text-anchor="start" style="">SPECIALTY</text>
<text x="18" y="57" class="sans" font-size="19" font-weight="800" fill="#080808">Systems-minded products</text>
</g></g>
</g>
<rect x="1" y="1" width="1198" height="598" rx="26" stroke="#0A0A0A" stroke-opacity="0.13999999999999999" stroke-width="2"/>
</svg>
